<svg width="637" height="637" viewBox="0 0 637 637" fill="none" xmlns="http://www.w3.org/2000/svg">
<circle cx="318.5" cy="318.5" r="318.5" fill="#FDC63E"/>
<circle cx="318.5" cy="318.5" r="308.5" fill="#070707"/>
<circle cx="318.5" cy="318.5" r="280.5" fill="#FDC63E"/>
<circle cx="318.5" cy="318.5" r="271.5" fill="#070707"/>
<circle cx="318.5" cy="318.5" r="248.5" fill="#FDC63E"/>
<circle cx="318.5" cy="318.5" r="240.5" fill="#070707"/>
<g clip-path="url(#clip0_33_264)">
<path d="M396.324 349.455C449.981 346.9 442.71 302.79 397.98 289.348C365.399 279.031 329.505 289.916 296.556 282.344C248.697 267.956 211.882 224.887 175.896 191.662C138.069 155.503 98.4931 113.097 54.7757 84.4157C0.842202 60.0888 82.2947 159.005 92.5107 168.66C156.752 237.76 235.076 300.328 322.326 334.973C353.987 345.385 394.667 359.016 425.96 341.41C451.638 318.976 415.559 291.715 393.287 287.644" stroke="white" stroke-linecap="round" stroke-linejoin="round"/>
<path d="M388.961 354.851C435.899 356.839 446.115 320.017 402.49 299.382C362.638 283.479 315.147 289.443 279.253 262.087C254.311 255.461 36.0919 18.7236 52.0143 99.9394C103.555 198.856 197.616 274.392 292.69 326.454C327.848 342.829 369.909 360.53 409.209 353.431C449.153 342.735 426.604 306.481 398.624 297.394" stroke="white" stroke-linecap="round" stroke-linejoin="round"/>
<path d="M381.506 360.436C421.357 365.452 447.588 338.097 407.092 309.699C369.541 288.496 323.799 282.154 289.837 253.379C268.3 242.872 26.336 -3.4261 70.1455 118.492C119.477 207.848 201.574 278.936 288.088 328.536C322.326 346.048 362.914 364.222 402.03 360.436C440.041 354.662 431.205 322.1 403.871 307.049" stroke="white" stroke-linecap="round" stroke-linejoin="round"/>
<path d="M374.05 366.02C399.913 371.605 442.802 360.909 417.86 326.832C404.238 310.173 383.346 299.666 365.215 289.159C322.878 265.968 284.591 231.797 248.696 199.329C223.57 179.83 98.3086 52.4216 76.9561 97.6677C90.2093 185.415 211.514 287.076 283.394 330.713C316.712 349.361 356.011 368.198 394.759 367.63C429.641 366.399 434.703 338.286 409.116 316.988" stroke="white" stroke-linecap="round" stroke-linejoin="round"/>
<path d="M366.411 371.7C390.065 378.326 437.372 374.823 420.805 338.096C408.288 314.527 384.359 298.34 364.571 281.586C295.543 226.117 233.419 158.248 159.145 109.784C48.977 43.5237 95.5476 153.231 137.424 202.831C186.48 265.305 249.341 321.247 320.209 355.703C344.139 366.399 373.038 377 399.453 374.255C426.972 371.416 430.745 346.521 414.363 326.832" stroke="white" stroke-linecap="round" stroke-linejoin="round"/>
<path d="M358.773 377.474C394.483 389.495 444.091 380.787 416.848 331.944C382.61 279.504 331.99 238.139 287.72 194.88C239.493 154.367 188.873 101.17 125.276 90.095C60.1135 101.927 153.807 222.142 175.62 246.847C219.245 295.879 272.626 341.125 332.082 368.008C363.006 384.384 445.931 398.298 419.793 336.961" stroke="white" stroke-linecap="round" stroke-linejoin="round"/>
<path d="M350.95 383.248C395.956 400.759 446.576 389.969 418.965 330.335C381.414 259.436 319.657 202.642 259.926 151.622C79.9939 10.0152 82.663 145.943 194.948 268.713C235.996 313.959 285.788 356.271 341.838 380.03C373.223 394.891 439.121 402.179 425.223 347.089" stroke="white" stroke-linecap="round" stroke-linejoin="round"/>
<path d="M343.127 389.211C448.785 430.86 446.116 348.225 397.796 278.557C350.121 208.511 286.892 144.617 212.619 105.24C146.536 71.7316 109.169 100.886 137.609 173.961C160.618 231.418 201.758 282.533 246.212 324.087C278.793 358.826 428.445 457.743 430.653 357.312" stroke="white" stroke-linecap="round" stroke-linejoin="round"/>
<path d="M335.119 395.175C383.07 420.448 446.76 418.65 434.887 346.142C424.211 290.957 389.329 241.641 353.895 199.992C200.745 24.5924 44.0991 66.5255 211.33 291.241C229.553 313.675 253.575 338.191 275.847 356.365C314.411 389.022 422.922 454.335 436.359 367.535" stroke="white" stroke-linecap="round" stroke-linejoin="round"/>
<path d="M327.112 401.138C422.37 453.957 467.744 393.376 429.64 297.489C395.219 214.758 331.713 139.79 252.286 100.697C206.912 78.3576 150.125 85.5515 152.058 148.782C154.267 201.412 181.51 251.296 210.685 293.134C243.358 337.813 285.327 379.462 334.106 404.924C370.737 425.37 432.586 433.038 441.881 378.042" stroke="white" stroke-linecap="round" stroke-linejoin="round"/>
<path d="M318.921 407.291C400.097 459.542 470.137 424.424 446.944 321.626C421.818 224.792 353.25 132.88 262.502 93.5027C203.691 70.0278 157.856 103.347 163.747 168.944C168.073 220.911 192.738 270.985 221.822 312.918C259.649 372.552 403.318 499.297 447.404 388.549" stroke="white" stroke-linecap="round" stroke-linejoin="round"/>
<path d="M310.638 413.444C380.493 463.612 464.431 451.874 459.921 348.982C450.073 243.913 382.794 140.358 290.666 93.0294C225.78 62.1712 172.583 100.318 174.423 173.109C175.252 230.093 199.365 286.13 230.75 332.228C272.442 396.311 401.202 504.882 453.11 399.15" stroke="white" stroke-linecap="round" stroke-linejoin="round"/>
<path d="M302.262 419.691C375.799 477.148 468.757 465.6 469.677 355.229C465.811 251.58 406.08 146.7 319.289 93.5026C246.58 52.2321 188.873 96.2477 185.099 177.369C181.878 232.081 199.273 287.928 226.7 334.31C266.92 407.669 399.085 517.282 458.909 409.847" stroke="white" stroke-linecap="round" stroke-linejoin="round"/>
<path d="M293.795 426.033C371.198 491.062 473.451 479.325 479.433 361.666C480.721 260.004 428.445 155.408 348.649 95.7745C202.771 -0.113073 165.496 217.22 214.551 318.787C247.316 408.995 392.09 535.646 464.799 420.732" stroke="white" stroke-linecap="round" stroke-linejoin="round"/>
<path d="M285.235 432.47C352.238 493.713 459.276 501.475 484.954 395.648C505.295 289.064 455.687 172.636 378.836 101.265C245.935 -12.1346 186.388 171.784 203.69 285.467C212.894 345.101 246.488 401.138 292.506 438.433C342.758 482.07 432.494 499.865 470.689 431.618" stroke="white" stroke-linecap="round" stroke-linejoin="round"/>
<path d="M276.492 439.001C335.212 496.836 441.606 518.134 483.851 430.009C527.568 323.235 481.09 194.029 409.945 111.204C279.161 -22.6414 220.35 127.579 205.716 254.136C198.445 318.408 223.203 384.479 267.381 429.914C319.749 488.507 426.972 521.826 476.488 442.693" stroke="white" stroke-linecap="round" stroke-linejoin="round"/>
<path d="M267.656 445.532C329.229 509.52 442.986 532.238 490.937 440.326C541.189 328.915 496.091 189.201 420.529 101.075C294.439 -23.1149 250.814 109.973 218.785 225.454C200.194 282.249 200.286 347.751 232.222 399.529C279.161 485.477 415.007 550.223 482.562 453.767" stroke="white" stroke-linecap="round" stroke-linejoin="round"/>
<path d="M258.728 452.253C393.746 584.962 541.189 493.239 522.782 309.605C514.867 231.418 483.298 149.161 431.021 91.0417C379.389 35.0047 310.177 20.8061 274.743 102.022C256.704 142.819 244.187 188.065 227.16 229.336C193.659 301.938 195.775 380.219 249.525 441.746C306.127 512.928 427.524 549.75 488.452 465.032" stroke="white" stroke-linecap="round" stroke-linejoin="round"/>
<path d="M249.709 458.974C346.347 564.516 500.049 549.75 530.237 394.512C547.54 296.826 519.468 188.917 463.97 108.364C432.034 62.7392 362.822 4.90375 313.03 57.6277C278.885 98.1409 271.338 155.503 249.801 202.926C205.347 291.715 171.754 358.732 240.597 447.899C299.225 525.612 428.076 564.138 494.711 476.485" stroke="white" stroke-linecap="round" stroke-linejoin="round"/>
<path d="M240.505 465.883C323.983 563.002 476.303 573.509 529.132 439.569C569.352 327.968 540.085 194.691 475.199 98.9928C444.919 57.533 385.739 2.82123 334.935 41.9146C290.297 84.4156 288.088 154.178 260.661 207.28C218.233 284.237 166.14 342.829 217.588 433.227C271.982 531.197 421.91 585.814 500.785 487.939" stroke="white" stroke-linecap="round" stroke-linejoin="round"/>
</g>
<defs>
<clipPath id="clip0_33_264">
<rect width="512" height="512" fill="white" transform="translate(36 28)"/>
</clipPath>
</defs>
</svg>
