<svg width="115" height="44" viewBox="0 0 115 44" fill="none" xmlns="http://www.w3.org/2000/svg">
<g clip-path="url(#clip0_31_984)">
<path d="M47.9526 15.3386C50.4626 13.9483 52.1195 12.0776 52.1195 8.62665C52.1195 5.17574 50.2261 0.0439453 41.3231 0.0439453H19.5867C15.4524 0.0439453 11.7568 2.65277 10.3282 6.58087L0.250977 34.2774H5.65409C8.66633 34.2774 11.3296 32.2976 12.2314 29.3866H22.8322C23.1029 32.1325 25.3927 34.2774 28.1766 34.2774H41.9852C47.9053 34.2774 53.8238 30.729 53.8238 23.8734C53.8238 18.839 50.9828 16.3458 47.951 15.3386H47.9526ZM22.7588 22.0505H14.5049L17.4323 12.1089C18.1369 9.71807 20.3076 8.07847 22.7735 8.07847L22.7604 22.0505H22.7588ZM33.2241 8.19405H38.717C40.8665 8.19405 42.2935 8.82809 42.269 10.5899C42.2462 12.1453 40.948 13.3721 39.4117 13.3721H33.2241V8.19405ZM39.3334 26.1256H33.2241V19.7488H39.7591C42.1744 19.7488 43.4057 20.8039 43.4057 22.8646C43.4057 25.5015 41.4634 26.1256 39.3334 26.1256Z" fill="#4F4F4F"/>
<path d="M114.998 16.6618C114.907 8.08235 110.729 -0.100777 101.217 -5.63128e-05C92.9162 0.0891061 91.2086 7.63654 89.4342 14.2511C87.4918 21.4518 87.0955 22.5911 85.0211 22.6142C84.4861 22.6191 83.7457 22.6852 83.3461 22.5168C81.6712 21.7638 81.2276 19.5348 81.2113 17.9711C81.1901 15.9534 81.5701 13.6154 83.4049 12.5801C83.5565 12.4942 83.7164 12.4166 83.8876 12.3506C84.6215 12.0765 85.4614 11.9081 86.3551 11.8982L86.2312 0.143594C86.104 0.143594 83.2646 0.146897 83.2646 0.146897H66.3083C55.0846 0.146897 51.0596 8.58595 51.0596 17.2149C51.0596 27.7625 56.5524 34.3787 68.3453 34.3787H87.3663C94.8357 34.24 96.4177 30.1253 98.0159 24.2554C99.4527 18.4037 100.196 12.3258 103.077 12.1194C105.383 12.0947 105.874 14.9495 105.891 16.6997C105.906 18.0421 105.632 19.3878 104.893 20.504C104.213 21.6202 103.183 22.274 101.623 22.0561L101.751 34.1954C111.72 33.7958 115.095 25.7051 114.998 16.6601V16.6618ZM72.9851 25.6061H68.9128C62.4725 25.6061 61.4776 20.2844 61.4776 17.0712C61.4776 14.9132 62.0941 8.92114 69.6712 8.92114H72.9868V14.7811C72.9085 15.6645 72.884 16.4405 72.8906 17.0481C72.8987 17.7796 72.9297 18.5144 72.9868 19.2475V25.6061H72.9851Z" fill="#4F4F4F"/>
<path d="M6.04405 43.8638H4.38707L4.13102 42.4938C3.99077 41.7378 3.85051 40.9818 3.76571 40.2175C3.71189 40.9818 3.56348 41.7213 3.43138 42.4773L3.19 43.8638H1.51835L0 38.2582H1.67165L1.95217 39.5259C2.14624 40.4156 2.29465 41.3135 2.35662 42.2181C2.42675 41.3201 2.59799 40.447 2.76924 39.5639L3.02529 38.2565H4.52733L4.75239 39.374C4.93831 40.3182 5.12586 41.2475 5.19599 42.2165C5.27427 41.2244 5.46019 40.2406 5.67058 39.2634L5.88911 38.2549H7.5624L6.04568 43.8605L6.04405 43.8638Z" fill="#4F4F4F"/>
<path d="M12.5792 39.6206H9.66157V40.3221H12.3069V41.6212H9.66157V42.4399H12.6559V43.8644H7.98828V38.2588H12.5776V39.6206H12.5792Z" fill="#4F4F4F"/>
<path d="M18.6944 43.9975C16.9983 43.9975 15.917 42.7067 15.917 41.0445C15.917 39.3823 17.0456 38.1162 18.7254 38.1162C20.079 38.1162 21.1603 39.0686 21.2386 40.3281H19.5897C19.4968 39.8246 19.1771 39.5407 18.6944 39.5407C17.8936 39.5407 17.6294 40.3512 17.6294 41.0445C17.6294 41.9738 18.0339 42.5482 18.6944 42.5482C19.1918 42.5482 19.5033 42.2329 19.5897 41.6503H21.263C21.1619 43.2019 20.0415 43.9958 18.696 43.9958L18.6944 43.9975Z" fill="#4F4F4F"/>
<path d="M24.935 38.2588C25.7978 38.2588 26.9116 38.6137 26.9116 39.9127C26.9116 40.5185 26.592 41.055 26.0946 41.2828C26.654 41.4247 26.8562 42.1725 26.9035 42.6693L26.9573 43.2603C26.9736 43.4567 26.9883 43.701 27.0976 43.8661H25.4178C25.3476 43.7092 25.333 43.5112 25.3166 43.3379L25.2938 43.0226C25.2465 42.3772 25.1454 41.8886 24.3528 41.8886H23.6368V43.8644H21.957V38.2588H24.9367H24.935ZM23.6352 40.7067H24.5681C24.9579 40.7067 25.2612 40.5648 25.2612 40.124C25.2612 39.746 24.997 39.5579 24.4751 39.5579H23.6352V40.7067Z" fill="#4F4F4F"/>
<path d="M32.3253 39.6206H29.4077V40.3221H32.0529V41.6212H29.4077V42.4399H32.402V43.8644H27.7344V38.2588H32.3237V39.6206H32.3253Z" fill="#4F4F4F"/>
<path d="M38.4403 43.8644H36.7213L36.449 43.0688H34.6681L34.3957 43.8644H32.6768L34.7219 38.2588H36.4017L38.4403 43.8644ZM35.7803 40.9048C35.6629 40.5185 35.6482 40.4244 35.5699 40.0547C35.477 40.441 35.446 40.5664 35.3367 40.913C35.3367 40.913 35.2193 41.2993 35.0334 41.8655H36.0755C35.9744 41.5419 35.7803 40.9048 35.7803 40.9048Z" fill="#4F4F4F"/>
<path d="M42.8368 39.6998H41.2809V43.8644H39.5848V39.6998H38.0371V38.2588H42.8368V39.6998Z" fill="#4F4F4F"/>
<path d="M48.088 39.6206H45.1704V40.3221H47.8156V41.6212H45.1704V42.4399H48.1647V43.8644H43.4971V38.2588H48.0864V39.6206H48.088Z" fill="#4F4F4F"/>
<path d="M54.5379 41.8407V43.8644H52.8663V41.8011L50.8896 38.2588H52.7717L53.1843 39.1485C53.3702 39.5579 53.5659 39.959 53.7062 40.3848C53.8856 39.921 54.0878 39.4786 54.2966 39.0313L54.6619 38.2604H56.5211L54.5379 41.8424V41.8407Z" fill="#4F4F4F"/>
<path d="M62.2086 41.0614C62.2086 42.8177 61.0881 43.9979 59.423 43.9979C57.7579 43.9979 56.5918 42.8243 56.5918 41.0532C56.5918 39.282 57.7204 38.1084 59.4393 38.1084C61.1583 38.1084 62.2086 39.2969 62.2086 41.0614ZM58.3189 41.0301C58.3189 42.0304 58.7234 42.6048 59.423 42.6048C60.1227 42.6048 60.488 42.0452 60.488 40.9822C60.488 40.0446 60.0917 39.4867 59.4149 39.4867C58.738 39.4867 58.3173 40.0694 58.3173 41.0301H58.3189Z" fill="#4F4F4F"/>
<path d="M67.9655 41.5733C67.9655 43.3445 67.0392 43.9668 65.4458 43.9668C63.7187 43.9668 62.9326 43.1563 62.9326 41.6674V38.2588H64.6287V41.6922C64.6287 42.2748 64.8783 42.5587 65.4768 42.5587C66.0134 42.5587 66.271 42.2748 66.271 41.6922V38.2588H67.9671V41.5733H67.9655Z" fill="#4F4F4F"/>
<path d="M71.8256 38.2588C72.6884 38.2588 73.8023 38.6137 73.8023 39.9127C73.8023 40.5185 73.4826 41.055 72.9852 41.2828C73.5446 41.4247 73.7468 42.1725 73.7941 42.6693L73.8479 43.2603C73.8642 43.4567 73.8789 43.701 73.9882 43.8661H72.3084C72.2383 43.7092 72.2236 43.5112 72.2073 43.3379L72.1844 43.0226C72.1371 42.3772 72.036 41.8886 71.2434 41.8886H70.5275V43.8644H68.8477V38.2588H71.8273H71.8256ZM70.5258 40.7067H71.4587C71.8485 40.7067 72.1518 40.5648 72.1518 40.124C72.1518 39.746 71.8876 39.5579 71.3657 39.5579H70.5258V40.7067Z" fill="#4F4F4F"/>
<path d="M79.9704 39.9587C79.9623 39.6203 79.6981 39.4239 79.2626 39.4239C78.9055 39.4239 78.7032 39.5493 78.7032 39.7705C78.7032 40.1171 79.6524 40.2508 79.8856 40.3136C80.812 40.5579 81.7921 40.9194 81.7921 42.0847C81.7921 43.2501 80.8511 43.9896 79.3735 43.9896C77.896 43.9896 76.8767 43.2253 76.8604 41.9741H78.5646C78.5956 42.5172 78.9299 42.6988 79.4274 42.6988C79.8546 42.6988 80.1205 42.5172 80.1205 42.2349C80.1205 42.1408 80.0813 42.0699 80.0112 42.0071C79.7862 41.819 78.8288 41.5813 78.4472 41.4476C77.653 41.1719 77.0789 40.8566 77.0789 39.8959C77.0789 38.8412 77.9808 38.1396 79.3197 38.1396C80.7353 38.1396 81.5524 38.8016 81.5671 39.9587H79.9721H79.9704Z" fill="#4F4F4F"/>
<path d="M86.9491 39.6998H85.3932V43.8644H83.6971V39.6998H82.1494V38.2588H86.9491V39.6998Z" fill="#4F4F4F"/>
<path d="M93.0562 41.0614C93.0562 42.8177 91.9358 43.9979 90.2707 43.9979C88.6055 43.9979 87.4395 42.8243 87.4395 41.0532C87.4395 39.282 88.568 38.1084 90.287 38.1084C92.0059 38.1084 93.0562 39.2969 93.0562 41.0614ZM89.1666 41.0301C89.1666 42.0304 89.571 42.6048 90.2707 42.6048C90.9703 42.6048 91.3356 42.0452 91.3356 40.9822C91.3356 40.0446 90.9393 39.4867 90.2625 39.4867C89.5857 39.4867 89.1649 40.0694 89.1649 41.0301H89.1666Z" fill="#4F4F4F"/>
<path d="M96.768 38.2588C97.6308 38.2588 98.7446 38.6137 98.7446 39.9127C98.7446 40.5185 98.425 41.055 97.9276 41.2828C98.487 41.4247 98.6892 42.1725 98.7365 42.6693L98.7903 43.2603C98.8066 43.4567 98.8213 43.701 98.9306 43.8661H97.2508C97.1806 43.7092 97.166 43.5112 97.1497 43.3379L97.1268 43.0226C97.0795 42.3772 96.9784 41.8886 96.1858 41.8886H95.4698V43.8644H93.79V38.2588H96.7697H96.768ZM95.4682 40.7067H96.4011C96.7909 40.7067 97.0942 40.5648 97.0942 40.124C97.0942 39.746 96.83 39.5579 96.3081 39.5579H95.4682V40.7067Z" fill="#4F4F4F"/>
<path d="M101.257 43.8644H99.5605V38.2588H101.257V43.8644Z" fill="#4F4F4F"/>
<path d="M106.749 39.6206H103.831V40.3221H106.477V41.6212H103.831V42.4399H106.826V43.8644H102.158V38.2588H106.747V39.6206H106.749Z" fill="#4F4F4F"/>
<path d="M110.383 39.9587C110.374 39.6203 110.11 39.4239 109.675 39.4239C109.318 39.4239 109.115 39.5493 109.115 39.7705C109.115 40.1171 110.065 40.2508 110.298 40.3136C111.224 40.5579 112.204 40.9194 112.204 42.0847C112.204 43.2501 111.263 43.9896 109.786 43.9896C108.308 43.9896 107.289 43.2253 107.272 41.9741H108.977C109.008 42.5172 109.342 42.6988 109.839 42.6988C110.267 42.6988 110.533 42.5172 110.533 42.2349C110.533 42.1408 110.493 42.0699 110.423 42.0071C110.198 41.819 109.241 41.5813 108.859 41.4476C108.065 41.1719 107.491 40.8566 107.491 39.8959C107.491 38.8412 108.393 38.1396 109.732 38.1396C111.147 38.1396 111.965 38.8016 111.979 39.9587H110.384H110.383Z" fill="#4F4F4F"/>
</g>
<defs>
<clipPath id="clip0_31_984">
<rect width="115" height="44" fill="white"/>
</clipPath>
</defs>
</svg>
