<svg width="512" height="512" viewBox="0 0 512 512" fill="none" xmlns="http://www.w3.org/2000/svg">
<g clip-path="url(#clip0_31_1312)">
<path d="M151.676 321.455C98.0188 318.899 105.29 274.789 150.02 261.348C182.601 251.03 218.495 261.916 251.444 254.343C299.303 239.955 336.118 196.887 372.104 163.662C409.931 127.503 449.507 85.0965 493.224 56.4154C547.158 32.0886 465.705 131.005 455.489 140.66C391.248 209.76 312.924 272.328 225.674 306.973C194.013 317.385 153.333 331.016 122.04 313.409C96.3622 290.976 132.441 263.714 154.713 259.644" stroke="white" stroke-linecap="round" stroke-linejoin="round"/>
<path d="M159.039 326.851C112.101 328.839 101.885 292.017 145.51 271.382C185.362 255.479 232.853 261.443 268.747 234.087C293.689 227.461 511.908 -9.27641 495.986 71.9394C444.445 170.856 350.384 246.392 255.31 298.454C220.152 314.829 178.091 332.53 138.791 325.431C98.8475 314.735 121.396 278.481 149.376 269.394" stroke="white" stroke-linecap="round" stroke-linejoin="round"/>
<path d="M166.494 332.435C126.643 337.452 100.412 310.096 140.908 281.699C178.459 260.496 224.201 254.154 258.163 225.378C279.7 214.871 521.664 -31.4263 477.855 90.492C428.523 179.848 346.426 250.936 259.912 300.536C225.674 318.048 185.086 336.222 145.97 332.435C107.959 326.661 116.795 294.099 144.129 279.049" stroke="white" stroke-linecap="round" stroke-linejoin="round"/>
<path d="M173.95 338.02C148.087 343.605 105.198 332.909 130.14 298.832C143.762 282.173 164.654 271.666 182.785 261.159C225.122 237.968 263.409 203.797 299.304 171.329C324.43 151.83 449.691 24.4214 471.044 69.6675C457.791 157.415 336.486 259.076 264.606 302.713C231.288 321.361 191.989 340.197 153.241 339.629C118.359 338.399 113.297 310.286 138.884 288.988" stroke="white" stroke-linecap="round" stroke-linejoin="round"/>
<path d="M181.589 343.7C157.935 350.326 110.628 346.823 127.195 310.096C139.712 286.527 163.641 270.34 183.429 253.586C252.457 198.117 314.581 130.248 388.855 81.7836C499.023 15.5237 452.452 125.231 410.576 174.831C361.52 237.305 298.659 293.247 227.791 327.703C203.861 338.399 174.962 349 148.547 346.255C121.028 343.416 117.255 318.521 133.637 298.832" stroke="white" stroke-linecap="round" stroke-linejoin="round"/>
<path d="M189.227 349.474C153.517 361.495 103.909 352.787 131.152 303.944C165.39 251.504 216.01 210.139 260.28 166.881C308.507 126.367 359.127 73.1701 422.724 62.0952C487.886 73.9273 394.193 194.142 372.38 218.847C328.755 267.88 275.374 313.126 215.918 340.008C184.994 356.384 102.069 370.299 128.207 308.961" stroke="white" stroke-linecap="round" stroke-linejoin="round"/>
<path d="M197.05 355.248C152.044 372.759 101.424 361.969 129.035 302.335C166.586 231.436 228.343 174.642 288.074 123.622C468.006 -17.9848 465.337 117.943 353.052 240.713C312.004 285.959 262.212 328.271 206.162 352.03C174.777 366.891 108.879 374.179 122.777 319.089" stroke="white" stroke-linecap="round" stroke-linejoin="round"/>
<path d="M204.873 361.211C99.2153 402.86 101.884 320.225 150.204 250.557C197.879 180.511 261.108 116.617 335.381 77.2399C401.464 43.7313 438.831 72.8857 410.391 145.961C387.382 203.418 346.242 254.533 301.788 296.087C269.207 330.826 119.555 429.743 117.347 329.312" stroke="white" stroke-linecap="round" stroke-linejoin="round"/>
<path d="M212.881 367.175C164.93 392.448 101.24 390.65 113.113 318.142C123.789 262.957 158.671 213.641 194.105 171.992C347.255 -3.40759 503.901 38.5255 336.67 263.241C318.447 285.675 294.425 310.191 272.153 328.365C233.589 361.022 125.078 426.335 111.641 339.535" stroke="white" stroke-linecap="round" stroke-linejoin="round"/>
<path d="M220.888 373.138C125.63 425.957 80.2564 365.376 118.36 269.488C152.781 186.758 216.287 111.79 295.714 72.6964C341.088 50.3574 397.875 57.5513 395.942 120.782C393.733 173.412 366.49 223.296 337.315 265.134C304.642 309.812 262.673 351.461 213.894 376.924C177.263 397.37 115.414 405.037 106.119 350.042" stroke="white" stroke-linecap="round" stroke-linejoin="round"/>
<path d="M229.079 379.291C147.903 431.542 77.8631 396.424 101.056 293.626C126.182 196.792 194.75 104.88 285.498 65.5027C344.309 42.0278 390.144 75.3471 384.253 140.944C379.927 192.911 355.262 242.985 326.178 284.918C288.351 344.552 144.682 471.297 100.596 360.549" stroke="white" stroke-linecap="round" stroke-linejoin="round"/>
<path d="M237.362 385.444C167.507 435.612 83.5691 423.875 88.0789 320.982C97.9268 215.913 165.206 112.358 257.334 65.0296C322.22 34.1714 375.417 72.3182 373.577 145.109C372.748 202.093 348.635 258.13 317.25 304.228C275.558 368.311 146.798 476.882 94.8896 371.151" stroke="white" stroke-linecap="round" stroke-linejoin="round"/>
<path d="M245.738 391.691C172.201 449.148 79.2435 437.6 78.3231 327.23C82.1886 223.58 141.92 118.7 228.711 65.5029C301.42 24.2324 359.127 68.2479 362.901 149.369C366.122 204.081 348.727 259.928 321.3 306.31C281.08 379.67 148.915 489.283 89.0914 381.847" stroke="white" stroke-linecap="round" stroke-linejoin="round"/>
<path d="M254.205 398.033C176.802 463.062 74.5495 451.325 68.5671 333.666C67.2786 232.004 119.555 127.408 199.351 67.7743C345.229 -28.1133 382.504 189.219 333.449 290.786C300.684 380.994 155.91 507.646 83.2009 392.732" stroke="white" stroke-linecap="round" stroke-linejoin="round"/>
<path d="M262.765 404.469C195.762 465.712 88.7238 473.474 63.0455 367.648C42.7054 261.064 92.3132 144.636 169.164 73.2643C302.065 -40.1348 361.612 143.784 344.31 257.467C335.106 317.101 301.512 373.138 255.494 410.433C205.242 454.07 115.506 471.865 77.3112 403.617" stroke="white" stroke-linecap="round" stroke-linejoin="round"/>
<path d="M271.508 411.001C212.788 468.836 106.394 490.134 64.1491 402.009C20.4317 295.235 66.9103 166.029 138.055 83.2037C268.839 -50.6414 327.65 99.5793 342.284 226.136C349.555 290.408 324.797 356.479 280.619 401.914C228.251 460.507 121.028 493.826 71.5121 414.693" stroke="white" stroke-linecap="round" stroke-linejoin="round"/>
<path d="M280.344 417.532C218.771 481.521 105.014 504.238 57.0626 412.326C6.81055 300.915 51.9085 161.201 127.471 73.0754C253.561 -51.1147 297.186 81.9731 329.215 197.455C347.806 254.249 347.714 319.752 315.778 371.529C268.839 457.478 132.993 522.223 65.4379 425.768" stroke="white" stroke-linecap="round" stroke-linejoin="round"/>
<path d="M289.272 424.253C154.254 556.962 6.81094 465.239 25.2183 281.605C33.1334 203.418 64.702 121.161 116.979 63.0414C168.611 7.00444 237.823 -7.19412 273.257 74.0216C291.296 114.819 303.813 160.065 320.84 201.335C354.341 273.937 352.225 352.219 298.475 413.746C241.873 484.928 120.476 521.749 59.548 437.031" stroke="white" stroke-linecap="round" stroke-linejoin="round"/>
<path d="M298.291 430.973C201.653 536.516 47.9512 521.749 17.7632 366.512C0.460313 268.826 28.5315 160.917 84.0296 80.3637C115.966 34.739 185.178 -23.0965 234.97 29.6275C269.115 70.1407 276.662 127.503 298.199 174.926C342.653 263.714 376.246 330.732 307.403 419.898C248.775 497.612 119.924 536.137 53.2894 448.485" stroke="white" stroke-linecap="round" stroke-linejoin="round"/>
<path d="M307.495 437.883C224.017 535.001 71.6967 545.508 18.8677 411.569C-21.3523 299.968 7.91532 166.691 72.8012 70.9925C103.081 29.5328 162.261 -25.179 213.065 13.9143C257.703 56.4154 259.912 126.178 287.339 179.28C329.767 256.236 381.86 314.829 330.412 405.227C276.018 503.197 126.09 557.814 47.215 459.938" stroke="white" stroke-linecap="round" stroke-linejoin="round"/>
</g>
<defs>
<clipPath id="clip0_31_1312">
<rect width="512" height="512" fill="white" transform="matrix(-1 0 0 1 512 0)"/>
</clipPath>
</defs>
</svg>
