<svg width="720" height="720" viewBox="0 0 720 720" fill="none" xmlns="http://www.w3.org/2000/svg">
<g clip-path="url(#clip0_135_1801)">
<path d="M374.449 482.265C410.105 522.443 439.891 489.105 422.293 445.842C409.884 413.998 378.887 392.878 364.11 362.47C345.286 316.176 355.724 260.487 359.016 211.619C363.439 159.477 371.628 102.054 366.532 50.0166C351.635 -7.24339 325.717 118.245 324.609 132.257C311.11 225.636 311.531 325.881 339.298 415.558C351.055 446.744 365.965 486.973 399.309 500.293C432.888 506.213 431.479 461.015 420.674 441.118" stroke="white" stroke-linecap="round" stroke-linejoin="round"/>
<path d="M365.629 479.917C393.531 517.714 428.613 502.566 417.31 455.649C404.688 414.64 370.248 381.401 369.028 336.287C358.538 312.708 405.963 -5.74871 352.712 57.6067C308.026 159.803 308.225 280.44 327.338 387.136C336.646 424.787 349.253 468.645 379.438 494.793C412.829 519.185 426.911 478.88 416.432 451.392" stroke="white" stroke-linecap="round" stroke-linejoin="round"/>
<path d="M356.602 477.616C377.7 511.795 415.459 515.056 412.163 465.706C405.113 423.162 381.351 383.565 382.45 339.065C377.118 315.703 417.089 -27.2427 349.642 83.3656C311.014 177.844 307.17 286.372 322.829 384.86C330.675 422.507 341.989 465.515 369.48 493.598C397.825 519.573 417.637 492.263 412.206 461.535" stroke="white" stroke-linecap="round" stroke-linejoin="round"/>
<path d="M347.576 475.315C359.454 498.957 394.693 525.643 405.578 484.84C410.004 463.781 405.077 440.92 401.883 420.21C393.378 372.692 395.963 321.439 398.724 273.118C398.143 241.319 418.759 63.841 370.13 75.603C310.119 140.978 307.068 299.22 318.189 382.571C324.573 420.214 334.563 462.634 359.316 492.449C382.16 518.839 407.227 505.142 407.758 471.855" stroke="white" stroke-linecap="round" stroke-linejoin="round"/>
<path d="M338.361 472.93C348.042 495.506 380.451 530.145 398.655 494.201C409.154 469.666 406.744 440.877 407.375 414.957C407.257 326.404 421.126 235.446 412.263 147.203C394.736 19.845 338.529 124.942 326.181 188.671C308.313 266.067 304.193 350.115 321.828 426.916C328.514 452.261 338.391 481.416 357.101 500.262C376.579 519.908 398.331 507.227 403.384 482.117" stroke="white" stroke-linecap="round" stroke-linejoin="round"/>
<path d="M329.072 470.604C342.117 505.954 380.023 539.118 400.963 487.259C420.315 427.697 420.764 362.327 426.672 300.714C427.96 237.741 437.623 164.947 406.344 108.477C356.246 65.1605 321.424 213.543 315.872 246.029C305.064 310.763 303.325 380.719 319.696 443.882C326.347 478.237 367.542 551.539 398.904 492.7" stroke="white" stroke-linecap="round" stroke-linejoin="round"/>
<path d="M319.667 468.136C334.27 514.168 374.433 546.814 403.544 487.898C435.19 414.175 440.667 330.452 442.917 251.929C440.289 22.9725 336.12 110.336 310.973 274.798C301.496 335.15 299.79 400.469 316.457 459.021C324.576 492.784 360.247 548.67 394.425 503.283" stroke="white" stroke-linecap="round" stroke-linejoin="round"/>
<path d="M310.116 465.786C343.977 574.191 406.649 520.264 430.58 438.928C455.211 357.856 465.292 268.532 449.352 185.991C433.983 113.51 387.836 102.706 348.778 170.7C318.474 224.667 304.485 288.773 300.019 349.46C293.411 396.626 310.283 575.219 389.872 513.926" stroke="white" stroke-linecap="round" stroke-linejoin="round"/>
<path d="M300.448 463.292C310.854 516.488 352.215 564.953 401.225 510.215C437.498 467.277 454.013 409.173 464.212 355.449C504.701 126.145 373.764 30.4787 303.709 301.69C297.674 329.955 293.656 364.043 293.479 392.789C292.246 443.307 309.471 568.781 385.491 524.783" stroke="white" stroke-linecap="round" stroke-linejoin="round"/>
<path d="M290.78 460.799C309.419 568.114 385.061 565.435 435.819 475.603C478.642 396.892 497.173 300.405 477.779 214.029C466.705 164.681 425.473 124.976 377.45 166.154C337.855 200.895 316.104 253.407 301.831 302.376C287.541 355.85 281.443 414.662 292.221 468.621C299.283 509.973 332.119 562.943 380.775 535.676" stroke="white" stroke-linecap="round" stroke-linejoin="round"/>
<path d="M280.85 458.281C291.096 554.274 362.386 586.779 427.88 504.221C487.517 423.899 516.066 312.839 489.79 217.47C471.17 156.946 416.467 142.161 369.084 187.906C331.333 223.879 307.818 274.503 293.413 323.46C270.712 390.331 262.16 581.727 376.058 546.568" stroke="white" stroke-linecap="round" stroke-linejoin="round"/>
<path d="M270.862 455.691C275.627 541.563 337.431 599.559 414.721 531.49C490.357 457.898 528.78 340.536 507.83 239.103C491.147 169.217 428.065 151.728 372.54 198.832C328.688 235.23 300.183 289.166 283.979 342.528C260.238 415.2 256.484 583.582 371.383 557.663" stroke="white" stroke-linecap="round" stroke-linejoin="round"/>
<path d="M260.742 453.089C262.141 546.401 329.457 611.539 415.977 543.006C494.261 474.964 538.451 362.647 525.42 261.688C511.936 179.177 441.455 161.859 375.921 209.818C331.297 241.638 298.724 290.223 279.816 340.681C247.928 418.027 245.499 589.714 366.692 568.889" stroke="white" stroke-linecap="round" stroke-linejoin="round"/>
<path d="M250.492 450.475C248.419 551.548 321.715 623.805 417.087 554.641C497.057 491.859 545.703 385.526 542.072 285.975C525.209 112.221 332.591 219.557 284.282 321.481C234.597 403.593 226.812 595.789 361.912 580.306" stroke="white" stroke-linecap="round" stroke-linejoin="round"/>
<path d="M240.109 447.849C234.46 538.448 295.575 626.666 394.09 580.262C489.846 529.227 549.381 417.548 556.738 312.926C561.653 138.29 381.078 207.317 303.412 292.119C262.752 336.701 240.194 398.019 240.027 457.252C237.578 523.761 280.023 604.801 357.131 591.722" stroke="white" stroke-linecap="round" stroke-linejoin="round"/>
<path d="M229.537 445.138C221.344 527.149 271.515 623.359 366.642 600.961C477.213 568.01 548.661 450.751 568.517 343.386C590.681 157.569 436.808 206.027 329.08 274.037C274.471 308.702 238.557 369.435 230.896 432.342C218.129 509.883 259.459 614.28 352.146 603.186" stroke="white" stroke-linecap="round" stroke-linejoin="round"/>
<path d="M218.908 442.356C207.714 530.449 261.399 633.283 363.054 612.953C481.337 582.18 561.833 459.403 583.044 345.273C600.636 169.169 469.632 218.702 359.613 266.218C303.724 287.376 252.777 328.546 232.497 385.901C195.022 476.377 229.84 622.78 347.333 614.865" stroke="white" stroke-linecap="round" stroke-linejoin="round"/>
<path d="M208.073 439.621C189.45 628.022 353.382 685.282 484.824 555.731C540.74 500.512 584.985 424.32 597.441 347.147C608.68 271.783 576.31 208.981 490.837 232.347C447.751 243.897 404.666 262.539 361.846 275.175C284.293 294.641 224.666 345.405 210.48 425.862C190.567 514.599 238.062 632.23 342.258 626.519" stroke="white" stroke-linecap="round" stroke-linejoin="round"/>
<path d="M197.18 436.815C175.63 578.285 283.565 688.703 423.386 614.81C510.308 566.992 576.721 477.428 604.625 383.672C620.113 330.178 621.723 239.997 549.427 234.306C496.457 233.136 447.055 263.25 396.615 276.235C299.587 297.328 226.325 313.218 200.087 422.771C176.358 517.182 227.204 641.687 337.265 638.578" stroke="white" stroke-linecap="round" stroke-linejoin="round"/>
<path d="M186.026 433.983C162.778 559.92 250.167 685.12 387.609 642.219C499.744 603.516 585.161 497.105 618.967 386.536C632.252 336.944 637.724 256.535 575.407 241.503C514.306 233.411 458.598 275.462 400.04 287.424C313.495 302.67 235.186 298.869 197.076 395.649C154.917 499.473 206.457 650.486 332.159 650.495" stroke="white" stroke-linecap="round" stroke-linejoin="round"/>
</g>
<defs>
<clipPath id="clip0_135_1801">
<rect width="512" height="512" fill="white" transform="translate(398.682) rotate(51.1394)"/>
</clipPath>
</defs>
</svg>
