<svg width="16" height="16" viewBox="0 0 16 16" fill="none" xmlns="http://www.w3.org/2000/svg">
<path d="M12.1903 3.80936H11.0474V3.04746C11.0474 2.83706 10.8769 2.6665 10.6665 2.6665C10.4561 2.6665 10.2856 2.83706 10.2856 3.04746V3.80936H5.71411V3.04746C5.71411 2.83706 5.54356 2.6665 5.33318 2.6665C5.1228 2.6665 4.95222 2.83706 4.95222 3.04746V3.80936H3.80936C3.17818 3.80936 2.6665 4.32104 2.6665 4.95222V12.1903C2.6665 12.8215 3.17818 13.3332 3.80936 13.3332H12.1903C12.8215 13.3332 13.3332 12.8215 13.3332 12.1903V4.95222C13.3332 4.32104 12.8215 3.80936 12.1903 3.80936ZM12.5712 12.1903C12.5712 12.4007 12.4007 12.5713 12.1903 12.5713H3.80936C3.59896 12.5713 3.4284 12.4007 3.4284 12.1903V7.2379H12.5712V12.1903ZM12.5712 6.47603H3.4284V4.95222C3.4284 4.74182 3.59896 4.57126 3.80936 4.57126H4.95222V5.33315C4.95222 5.54356 5.12278 5.71411 5.33318 5.71411C5.54358 5.71411 5.71414 5.54356 5.71414 5.33315V4.57126H10.2856V5.33315C10.2856 5.54356 10.4561 5.71411 10.6665 5.71411C10.8769 5.71411 11.0475 5.54356 11.0475 5.33315V4.57126H12.1903C12.4008 4.57126 12.5713 4.74182 12.5713 4.95222L12.5712 6.47603Z" fill="white"/>
<path d="M5.71415 8H4.95225C4.74185 8 4.57129 8.17053 4.57129 8.38093C4.57129 8.59133 4.74185 8.76193 4.95225 8.76193H5.71415C5.92455 8.76193 6.09511 8.59133 6.09511 8.38093C6.09511 8.17053 5.92455 8 5.71415 8Z" fill="white"/>
<path d="M8.38066 8H7.61879C7.40839 8 7.23779 8.17053 7.23779 8.38093C7.23779 8.59133 7.40839 8.76193 7.61879 8.76193H8.38066C8.59106 8.76193 8.76159 8.59133 8.76159 8.38093C8.76159 8.17053 8.59106 8 8.38066 8Z" fill="white"/>
<path d="M11.0477 8H10.2858C10.0754 8 9.90479 8.17053 9.90479 8.38093C9.90479 8.59133 10.0754 8.76193 10.2858 8.76193H11.0477C11.2581 8.76193 11.4287 8.59133 11.4287 8.38093C11.4286 8.17053 11.2581 8 11.0477 8Z" fill="white"/>
<path d="M5.71415 9.52393H4.95225C4.74185 9.52393 4.57129 9.69453 4.57129 9.90493C4.57129 10.1153 4.74185 10.2859 4.95225 10.2859H5.71415C5.92455 10.2859 6.09511 10.1153 6.09511 9.90493C6.09511 9.69453 5.92455 9.52393 5.71415 9.52393Z" fill="white"/>
<path d="M8.38066 9.52393H7.61879C7.40839 9.52393 7.23779 9.69453 7.23779 9.90493C7.23779 10.1153 7.40839 10.2859 7.61879 10.2859H8.38066C8.59106 10.2859 8.76159 10.1153 8.76159 9.90493C8.76159 9.69453 8.59106 9.52393 8.38066 9.52393Z" fill="white"/>
<path d="M11.0477 9.52393H10.2858C10.0754 9.52393 9.90479 9.69453 9.90479 9.90493C9.90479 10.1153 10.0754 10.2859 10.2858 10.2859H11.0477C11.2581 10.2859 11.4287 10.1153 11.4287 9.90493C11.4286 9.69453 11.2581 9.52393 11.0477 9.52393Z" fill="white"/>
<path d="M5.71415 11.0474H4.95225C4.74185 11.0474 4.57129 11.2179 4.57129 11.4283C4.57129 11.6387 4.74185 11.8092 4.95225 11.8092H5.71415C5.92455 11.8092 6.09511 11.6387 6.09511 11.4283C6.09511 11.2179 5.92455 11.0474 5.71415 11.0474Z" fill="white"/>
<path d="M8.38066 11.0474H7.61879C7.40839 11.0474 7.23779 11.2179 7.23779 11.4283C7.23779 11.6387 7.40839 11.8093 7.61879 11.8093H8.38066C8.59106 11.8093 8.76159 11.6387 8.76159 11.4283C8.76159 11.2179 8.59106 11.0474 8.38066 11.0474Z" fill="white"/>
<path d="M11.0477 11.0474H10.2858C10.0754 11.0474 9.90479 11.2179 9.90479 11.4283C9.90479 11.6387 10.0754 11.8093 10.2858 11.8093H11.0477C11.2581 11.8093 11.4287 11.6387 11.4287 11.4283C11.4287 11.2179 11.2581 11.0474 11.0477 11.0474Z" fill="white"/>
</svg>
