<svg width="60" height="42" viewBox="0 0 60 42" fill="none" xmlns="http://www.w3.org/2000/svg">
<g clip-path="url(#clip0_31_1716)">
<path d="M60 24.3854H0V29.3236H60V24.3854Z" fill="#FDC63E"/>
<path d="M16.3407 24.3855H10.7236V0H27.5747L31.6087 4.22545L23.6428 20.9236L18.6385 18.5309L24.8683 5.54909H16.3407V24.3855Z" fill="#FDC63E"/>
<path d="M30.7915 5.54909H43.3021V24.3855H48.9192V0H33.4468" fill="#FDC63E"/>
<path d="M35.8978 10.5891L41.0042 12.9309L35.6425 24.3855H29.5659L35.8978 10.5891Z" fill="#FDC63E"/>
<path d="M0.970292 34.9745C0.868164 34.9236 0.868164 34.9236 0.868164 34.72C0.868164 34.4145 0.868164 34.16 0.919228 34.0582C0.919228 34.0073 0.919228 33.9564 0.970292 33.9564C1.02136 33.9564 1.02136 33.9564 1.02136 34.0073C1.02136 34.0582 1.02136 34.16 1.02136 34.2109C1.12348 34.6691 1.53199 34.8218 1.9405 34.8218C2.55327 34.8218 2.80859 34.4145 2.80859 34.0073C2.80859 33.6 2.6554 33.3454 2.0937 32.8873L1.83838 32.6836C1.17455 32.1745 1.02136 31.7673 1.02136 31.36C1.02136 30.6982 1.53199 30.24 2.29795 30.24C2.55327 30.24 2.70646 30.24 2.85965 30.2909C2.96178 30.2909 3.01285 30.3418 3.06391 30.3418C3.11497 30.3418 3.11497 30.3418 3.11497 30.3927C3.11497 30.4436 3.11497 30.6473 3.11497 31.0545C3.11497 31.1564 3.11497 31.2073 3.06391 31.2073C3.06391 31.2582 3.06391 31.2582 3.06391 31.2073C3.06391 31.1564 3.01285 30.9527 2.96178 30.9018C2.91072 30.8509 2.75753 30.5964 2.19582 30.5964C1.78731 30.5964 1.42987 30.8509 1.42987 31.3091C1.42987 31.6654 1.58306 31.8691 2.19582 32.3273L2.34902 32.48C3.06391 33.04 3.26816 33.4473 3.26816 33.9054C3.26816 34.16 3.16604 34.6182 2.75753 34.9236C2.45114 35.0764 2.14476 35.1273 1.78731 35.1273C1.53199 35.1273 1.22561 35.1273 0.970292 34.9745Z" fill="#FDC63E"/>
<path d="M5.71944 31.2581C5.7705 31.1054 5.82157 31.0545 5.87263 31.0545C5.9237 31.0545 5.9237 31.1054 6.02582 31.2581C6.12795 31.4618 6.99604 33.6 7.30242 34.4145C7.50667 34.8727 7.65987 34.9236 7.76199 34.9745C7.86412 34.9745 7.91518 35.0254 7.96625 35.0254C8.01731 35.0254 8.01731 35.0254 8.01731 35.0763C8.01731 35.1272 7.96625 35.1272 7.91518 35.1272C7.81306 35.1272 7.45561 35.1272 7.0471 35.1272C6.94497 35.1272 6.84284 35.1272 6.84284 35.0763C6.84284 35.0763 6.84284 35.0763 6.89391 35.0254C6.94497 35.0254 6.99604 34.9745 6.94497 34.8727L6.4854 33.7018C6.4854 33.7018 6.4854 33.6509 6.43433 33.6509H5.2088C5.2088 33.6509 5.15774 33.6509 5.15774 33.7018L4.85135 34.5163C4.80029 34.6691 4.74923 34.7709 4.74923 34.8727C4.74923 34.9745 4.85135 35.0254 4.95348 35.0254H5.00455C5.05561 35.0254 5.05561 35.0254 5.05561 35.0763C5.05561 35.1272 5.00455 35.1272 4.95348 35.1272C4.80029 35.1272 4.54497 35.1272 4.49391 35.1272C4.44284 35.1272 4.18752 35.1272 3.93221 35.1272C3.88114 35.1272 3.83008 35.1272 3.83008 35.0763C3.83008 35.0763 3.83008 35.0254 3.88114 35.0254C3.93221 35.0254 3.98327 35.0254 4.03433 35.0254C4.28965 34.9745 4.39178 34.8218 4.49391 34.5672L5.71944 31.2581ZM6.33221 33.3963C6.38327 33.3963 6.38327 33.3963 6.33221 33.3963L5.82157 31.92C5.7705 31.8181 5.7705 31.8181 5.71944 31.92L5.2088 33.3454V33.3963H6.33221Z" fill="#FDC63E"/>
<path d="M9.39571 33.5491C9.39571 34.3127 9.39571 34.6182 9.49784 34.72C9.59997 34.8218 9.80422 34.8218 10.2127 34.8218C10.5191 34.8218 10.7234 34.8218 10.8766 34.6691C10.9276 34.5673 10.9787 34.4655 11.0298 34.3636C11.0298 34.3127 11.0298 34.3127 11.0808 34.3127C11.0808 34.3127 11.1319 34.3127 11.1319 34.4146C11.1319 34.4655 11.0808 34.7709 11.0298 34.9236C10.9787 35.0255 10.9787 35.0764 10.6723 35.0764C10.2638 35.0764 10.0085 35.0764 9.75316 35.0764C9.49784 35.0764 9.34465 35.0764 9.14039 35.0764C9.14039 35.0764 9.03826 35.0764 8.93614 35.0764C8.83401 35.0764 8.73188 35.0764 8.62975 35.0764C8.57869 35.0764 8.52763 35.0764 8.52763 35.0255C8.52763 35.0255 8.52763 34.9746 8.57869 34.9746C8.62975 34.9746 8.68082 34.9746 8.73188 34.9746C8.83401 34.9746 8.83401 34.8727 8.88507 34.72C8.93614 34.5164 8.93614 34.1091 8.93614 33.6V32.6836C8.93614 31.8691 8.93614 31.7164 8.93614 31.5636C8.93614 31.4109 8.88507 31.3091 8.73188 31.2582C8.68082 31.2582 8.57869 31.2582 8.52763 31.2582C8.52763 31.2582 8.47656 31.2582 8.47656 31.2073C8.47656 31.1564 8.47656 31.1564 8.57869 31.1564C8.83401 31.1564 9.14039 31.1564 9.19146 31.1564C9.19146 31.1564 9.59997 31.1564 9.80422 31.1564C9.85529 31.1564 9.90635 31.1564 9.90635 31.2073C9.90635 31.2073 9.90635 31.2582 9.85529 31.2582C9.80422 31.2582 9.75316 31.2582 9.70209 31.2582C9.5489 31.3091 9.49784 31.36 9.49784 31.5636C9.49784 31.7164 9.49784 31.8691 9.49784 32.6836V33.5491H9.39571Z" fill="#FDC63E"/>
<path d="M12.3575 32.6327C12.3575 31.8181 12.3575 31.6654 12.3575 31.5127C12.3575 31.36 12.3065 31.2581 12.1533 31.2072C12.1022 31.2072 12.0001 31.2072 11.949 31.2072C11.949 31.2072 11.8979 31.2072 11.8979 31.1563C11.8979 31.1054 11.8979 31.1054 12.0001 31.1054C12.2554 31.1054 12.6128 31.1054 12.6128 31.1054C12.6639 31.1054 13.7873 31.1054 13.8894 31.1054C13.9916 31.1054 14.0937 31.1054 14.1448 31.0545H14.1958C14.1958 31.0545 14.1958 31.0545 14.1958 31.1054C14.1958 31.1563 14.1448 31.2072 14.1448 31.36C14.1448 31.4109 14.1448 31.6654 14.0937 31.7163C14.0937 31.7163 14.0937 31.7672 14.0426 31.7672C13.9916 31.7672 13.9916 31.7672 13.9916 31.7163C13.9916 31.6654 13.9916 31.6145 13.9405 31.5127C13.8894 31.4109 13.8384 31.4109 13.532 31.36C13.4299 31.36 12.8171 31.36 12.766 31.36C12.766 31.36 12.715 31.36 12.715 31.4109V32.8363C12.715 32.8872 12.715 32.8872 12.766 32.8872C12.8171 32.8872 13.532 32.8872 13.6852 32.8872C13.8384 32.8872 13.8894 32.8872 13.9405 32.8363C13.9916 32.7854 13.9916 32.7854 14.0426 32.7854C14.0426 32.7854 14.0937 32.7854 14.0937 32.8363C14.0937 32.8872 14.0426 32.9381 14.0426 33.1418C14.0426 33.2436 14.0426 33.4472 14.0426 33.4981C14.0426 33.5491 14.0426 33.6 13.9916 33.6C13.9916 33.6 13.9405 33.6 13.9405 33.5491C13.9405 33.4981 13.9405 33.4472 13.9405 33.3963C13.9405 33.3454 13.8894 33.2436 13.6852 33.2436C13.532 33.2436 12.9703 33.2436 12.8682 33.2436C12.8171 33.2436 12.8171 33.2436 12.8171 33.2945V33.7527C12.8171 33.9054 12.8171 34.5163 12.8171 34.6181C12.8171 34.9745 12.9192 35.0254 13.4809 35.0254C13.6341 35.0254 13.8894 35.0254 14.0426 34.9745C14.1958 34.9236 14.2469 34.8218 14.2979 34.6181C14.2979 34.5672 14.2979 34.5163 14.349 34.5163C14.4001 34.5163 14.4001 34.5672 14.4001 34.6181C14.4001 34.669 14.349 35.0254 14.349 35.1272C14.2979 35.28 14.2469 35.28 14.0426 35.28C13.6341 35.28 13.3277 35.28 13.1235 35.28C12.9192 35.28 12.766 35.28 12.6639 35.28C12.6639 35.28 12.5618 35.28 12.4086 35.28C12.3065 35.28 12.2043 35.28 12.1022 35.28C12.0511 35.28 12.0001 35.28 12.0001 35.229C12.0001 35.229 12.0001 35.1781 12.0511 35.1781C12.1022 35.1781 12.1533 35.1781 12.2043 35.1781C12.3065 35.1781 12.3065 35.0763 12.3575 34.9236C12.4086 34.72 12.4086 34.3127 12.4086 33.8036V32.6327H12.3575Z" fill="#FDC63E"/>
<path d="M15.4722 34.9745C15.4212 34.9236 15.3701 34.9236 15.3701 34.7709C15.3701 34.5163 15.3701 34.3127 15.4212 34.2109C15.4212 34.16 15.4212 34.1091 15.4722 34.1091C15.5233 34.1091 15.5233 34.1091 15.5233 34.16C15.5233 34.2109 15.5233 34.2618 15.5233 34.3636C15.6254 34.72 16.0339 34.8727 16.3914 34.8727C16.902 34.8727 17.2084 34.5672 17.2084 34.16C17.2084 33.8036 17.0042 33.6 16.5446 33.2436L16.2893 33.04C15.7276 32.5818 15.5233 32.2763 15.5233 31.92C15.5233 31.3091 15.9829 30.9527 16.6978 30.9527C16.902 30.9527 17.1063 31.0036 17.2595 31.0036C17.3616 31.0036 17.4127 31.0036 17.4637 31.0036C17.5148 31.0036 17.5148 31.0036 17.5148 31.0545C17.5148 31.0545 17.5148 31.2582 17.5148 31.6145C17.5148 31.7163 17.5148 31.7163 17.4637 31.7163C17.4127 31.7163 17.4127 31.7163 17.4127 31.6654C17.4127 31.6145 17.3616 31.4618 17.3105 31.4109C17.2595 31.36 17.1063 31.1563 16.5956 31.1563C16.1871 31.1563 15.8808 31.36 15.8808 31.7163C15.8808 32.0218 16.0339 32.2254 16.5956 32.5818L16.7488 32.6836C17.4127 33.1418 17.6169 33.4982 17.6169 33.9563C17.6169 34.2618 17.5148 34.5672 17.1063 34.8218C16.902 34.9745 16.5446 35.0254 16.2382 35.0254C16.0339 35.1272 15.7276 35.0763 15.4722 34.9745Z" fill="#FDC63E"/>
<path d="M26.1956 34.2618C26.1956 34.4654 26.2467 34.8218 26.502 34.9236C26.6552 34.9745 26.8594 34.9745 26.9105 34.9745C26.9616 34.9745 26.9616 34.9745 26.9616 35.0254C26.9616 35.0763 26.9105 35.0763 26.8084 35.0763C26.6552 35.0763 25.9914 35.0763 25.7871 35.0254C25.6339 35.0254 25.6339 34.9745 25.6339 34.9745C25.6339 34.9745 25.6339 34.9236 25.685 34.9236C25.736 34.9236 25.736 34.8218 25.685 34.72L25.4297 31.5636L23.9488 34.72C23.7956 34.9745 23.7956 35.0254 23.7445 35.0254C23.6935 35.0254 23.6935 34.9745 23.5403 34.72C23.3871 34.4145 22.8765 33.3454 22.8254 33.2945C22.7743 33.1927 22.0594 31.7163 22.0084 31.5636L21.7531 34.4145C21.7531 34.5163 21.7531 34.6182 21.7531 34.72C21.7531 34.8218 21.8041 34.8727 21.9062 34.9236C22.0084 34.9236 22.1105 34.9745 22.1616 34.9745C22.1616 34.9745 22.2126 34.9745 22.2126 35.0254C22.2126 35.0763 22.1616 35.0763 22.1105 35.0763C21.9062 35.0763 21.5999 35.0763 21.5488 35.0763C21.4977 35.0763 21.1914 35.0763 21.0382 35.0763C20.9871 35.0763 20.936 35.0763 20.936 35.0254L20.9871 34.9745C21.0382 34.9745 21.0892 34.9745 21.1914 34.9745C21.3956 34.9236 21.3956 34.72 21.4467 34.4654L21.9062 30.4945C21.9062 30.4436 21.9573 30.3927 21.9573 30.3927C22.0084 30.3927 22.0084 30.3927 22.0594 30.4945L23.9488 34.3127L25.736 30.4945C25.736 30.4436 25.7871 30.3927 25.8382 30.3927C25.8892 30.3927 25.8892 30.4436 25.8892 30.5454L26.1956 34.2618Z" fill="#FDC63E"/>
<path d="M29.0554 31.2581C29.1064 31.1054 29.1575 31.0545 29.2086 31.0545C29.2596 31.0545 29.2596 31.1054 29.3618 31.2581C29.4639 31.4618 30.332 33.6 30.6384 34.4145C30.8426 34.8727 30.9958 34.9236 31.0979 34.9745C31.2001 34.9745 31.2511 35.0254 31.3022 35.0254C31.3532 35.0254 31.3533 35.0254 31.3533 35.0763C31.3533 35.1272 31.3022 35.1272 31.2511 35.1272C31.149 35.1272 30.7915 35.1272 30.383 35.1272C30.2809 35.1272 30.1788 35.1272 30.1788 35.0763C30.1788 35.0763 30.1788 35.0763 30.2298 35.0254C30.2809 35.0254 30.332 34.9745 30.2809 34.8727L29.8213 33.7018C29.8213 33.7018 29.8213 33.6509 29.7703 33.6509H28.5447C28.5447 33.6509 28.4937 33.6509 28.4937 33.7018L28.1873 34.5163C28.0852 34.6181 28.0852 34.72 28.0852 34.8218C28.0852 34.9236 28.1873 34.9745 28.2894 34.9745H28.3405C28.3915 34.9745 28.3915 34.9745 28.3915 35.0254C28.3915 35.0763 28.3405 35.0763 28.2894 35.0763C28.1362 35.0763 27.8809 35.0763 27.8298 35.0763C27.7788 35.0763 27.5235 35.0763 27.2681 35.0763C27.2171 35.0763 27.166 35.0763 27.166 35.0254C27.166 35.0254 27.166 34.9745 27.2171 34.9745C27.2681 34.9745 27.3192 34.9745 27.3703 34.9745C27.6256 34.9236 27.7277 34.7709 27.8298 34.5163L29.0554 31.2581ZM29.6681 33.3963C29.7192 33.3963 29.7192 33.3963 29.6681 33.3963L29.1575 31.92C29.1064 31.8181 29.1064 31.8181 29.0554 31.92L28.5447 33.3454V33.3963H29.6681Z" fill="#FDC63E"/>
<path d="M32.2726 32.6327C32.2726 31.8182 32.2726 31.6655 32.2726 31.5127C32.2726 31.36 32.2215 31.2582 32.0683 31.2073C32.0172 31.2073 31.9151 31.2073 31.8641 31.2073C31.8641 31.2073 31.813 31.2073 31.813 31.1564C31.813 31.1055 31.813 31.1055 31.9151 31.1055C32.1704 31.1055 32.5279 31.1055 32.5279 31.1055C32.5789 31.1055 33.0385 31.1055 33.1917 31.1055C33.5492 31.1055 33.9066 31.1564 34.213 31.3091C34.3662 31.4109 34.5704 31.6655 34.5704 32.0218C34.5704 32.4291 34.4172 32.7855 33.9066 33.1927C34.3662 33.7527 34.7236 34.2109 35.03 34.5164C35.3364 34.8218 35.4896 34.8727 35.6428 34.8727C35.7449 34.8727 35.796 34.8727 35.847 34.8727C35.8981 34.8727 35.8981 34.8727 35.8981 34.9237C35.8981 34.9746 35.847 34.9746 35.7449 34.9746H35.3875C35.0811 34.9746 34.9279 34.9237 34.8258 34.8727C34.5704 34.7709 34.4172 34.5164 34.1109 34.1091C33.9066 33.8037 33.6513 33.4982 33.5492 33.3455L33.4981 33.2946H32.8343C32.8343 33.2946 32.7832 33.2946 32.7832 33.3455V33.4473C32.7832 33.9564 32.7832 34.3637 32.7832 34.5673C32.7832 34.72 32.8343 34.8218 32.9875 34.8218C33.0385 34.8218 33.1917 34.8218 33.2428 34.8218C33.2938 34.8218 33.2938 34.8218 33.2938 34.8727C33.2938 34.8727 33.2938 34.9237 33.1917 34.9237C32.8853 34.9237 32.5789 34.9237 32.5279 34.9237C32.5279 34.9237 32.1704 34.9237 32.0172 34.9237C31.9662 34.9237 31.9151 34.9237 31.9151 34.8727C31.9151 34.8727 31.9151 34.8218 31.9662 34.8218C32.0172 34.8218 32.0683 34.8218 32.1194 34.8218C32.2215 34.8218 32.2215 34.72 32.2726 34.5673C32.3236 34.3637 32.3236 33.9564 32.3236 33.4473V32.6327H32.2726ZM32.7321 33.0909C32.7321 33.1418 32.7321 33.1418 32.7832 33.1418C32.8853 33.1927 33.1406 33.2437 33.396 33.2437C33.5492 33.2437 33.6513 33.2437 33.8045 33.1418C34.0087 33.04 34.1109 32.7346 34.1109 32.3273C34.1109 31.6655 33.7534 31.3091 33.1917 31.3091C33.0385 31.3091 32.8853 31.3091 32.7832 31.36L32.7321 31.4109V33.0909Z" fill="#FDC63E"/>
<path d="M36.5616 32.6327C36.5616 31.8182 36.5616 31.6655 36.5616 31.5127C36.5616 31.36 36.5106 31.2582 36.3574 31.2073C36.3063 31.2073 36.2042 31.2073 36.1531 31.2073C36.1531 31.2073 36.1021 31.2073 36.1021 31.1564C36.1021 31.1055 36.1021 31.1055 36.2042 31.1055C36.4595 31.1055 36.7659 31.1055 36.8169 31.1055C36.868 31.1055 37.1744 31.1055 37.3276 31.1055C37.3786 31.1055 37.4297 31.1055 37.4297 31.1564C37.4297 31.1564 37.4297 31.2073 37.3786 31.2073C37.3276 31.2073 37.3276 31.2073 37.2255 31.2073C37.0723 31.2582 37.0723 31.3091 37.0212 31.5127C37.0212 31.6655 37.0212 31.8182 37.0212 32.6327V32.9382C37.1233 32.8364 38.0935 31.8691 38.2467 31.6655C38.3999 31.5127 38.5531 31.36 38.5531 31.3091C38.5531 31.2582 38.5531 31.2073 38.5021 31.2073C38.451 31.2073 38.451 31.1564 38.451 31.1564C38.451 31.1564 38.451 31.1055 38.5021 31.1055C38.6042 31.1055 38.7574 31.1055 38.9106 31.1055C38.9616 31.1055 39.3191 31.1055 39.4212 31.1055C39.4723 31.1055 39.5233 31.1055 39.5233 31.1564C39.5233 31.1564 39.5233 31.2073 39.4723 31.2073C39.3701 31.2073 39.268 31.2582 39.1659 31.2582C38.9616 31.36 38.8595 31.4618 38.6042 31.7164C38.451 31.8182 37.5318 32.7346 37.4297 32.8364C37.5829 32.9891 38.7063 34.1091 38.9106 34.3127C39.3701 34.72 39.4212 34.7709 39.6765 34.8727C39.8297 34.9237 39.9829 34.9237 39.9829 34.9237C40.034 34.9237 40.034 34.9236 40.034 34.9746C40.034 34.9746 40.034 35.0255 39.9318 35.0255H39.6765C39.5233 35.0255 39.4212 35.0255 39.3191 35.0255C39.0127 35.0255 38.9106 34.8727 38.6552 34.72C38.3999 34.5164 37.2765 33.3455 37.0212 33.04V33.5491C37.0212 34.0582 37.0212 34.4655 37.0212 34.6691C37.0212 34.8218 37.0723 34.9237 37.2255 34.9237C37.2765 34.9237 37.3786 34.9237 37.4297 34.9237C37.4808 34.9237 37.4808 34.9236 37.4808 34.9746C37.4808 34.9746 37.4808 35.0255 37.3786 35.0255C37.1233 35.0255 36.7659 35.0255 36.7659 35.0255C36.7659 35.0255 36.4084 35.0255 36.2552 35.0255C36.2042 35.0255 36.1531 35.0255 36.1531 34.9746C36.1531 34.9746 36.1531 34.9237 36.2042 34.9237C36.2552 34.9237 36.3063 34.9237 36.3574 34.9237C36.4595 34.9237 36.4595 34.8218 36.5106 34.6691C36.5616 34.4655 36.5616 34.0582 36.5616 33.5491V32.6327Z" fill="#FDC63E"/>
<path d="M40.7999 32.6327C40.7999 31.8181 40.7999 31.6654 40.7999 31.5127C40.7999 31.36 40.7488 31.2581 40.5957 31.2072C40.5446 31.2072 40.4425 31.2072 40.3914 31.2072C40.3914 31.2072 40.3403 31.2072 40.3403 31.1563C40.3403 31.1054 40.3403 31.1054 40.4425 31.1054C40.6978 31.1054 41.0552 31.1054 41.0552 31.1054C41.1063 31.1054 42.2297 31.1054 42.3318 31.1054C42.4339 31.1054 42.5361 31.1054 42.5871 31.0545H42.6382C42.6382 31.0545 42.6382 31.0545 42.6382 31.1054C42.6382 31.1563 42.5871 31.2072 42.5871 31.36C42.5871 31.4109 42.5871 31.6654 42.5361 31.7163C42.5361 31.7163 42.5361 31.7672 42.485 31.7672C42.4339 31.7672 42.4339 31.7672 42.4339 31.7163C42.4339 31.6654 42.4339 31.6145 42.3829 31.5127C42.3318 31.4109 42.2808 31.4109 41.9744 31.36C41.8722 31.36 41.2595 31.36 41.2084 31.36C41.2084 31.36 41.1574 31.36 41.1574 31.4109V32.8363C41.1574 32.8872 41.1574 32.8872 41.2084 32.8872C41.2595 32.8872 41.9744 32.8872 42.1276 32.8872C42.2808 32.8872 42.3318 32.8872 42.3829 32.8363C42.4339 32.7854 42.4339 32.7854 42.485 32.7854C42.485 32.7854 42.5361 32.7854 42.5361 32.8363C42.5361 32.8872 42.485 32.9381 42.485 33.1418C42.485 33.2436 42.485 33.4472 42.485 33.4981C42.485 33.5491 42.485 33.6 42.4339 33.6C42.4339 33.6 42.3829 33.6 42.3829 33.5491C42.3829 33.4981 42.3829 33.4472 42.3829 33.3963C42.3829 33.3454 42.3318 33.2436 42.1276 33.2436C41.9744 33.2436 41.4127 33.2436 41.3105 33.2436C41.2595 33.2436 41.2595 33.2436 41.2595 33.2945V33.7527C41.2595 33.9054 41.2595 34.5163 41.2595 34.6181C41.2595 34.9745 41.3616 35.0254 41.9233 35.0254C42.0765 35.0254 42.3318 35.0254 42.485 34.9745C42.6382 34.9236 42.6893 34.8218 42.7403 34.6181C42.7403 34.5672 42.7403 34.5163 42.7914 34.5163C42.8425 34.5163 42.8425 34.5672 42.8425 34.6181C42.8425 34.669 42.7914 35.0254 42.7914 35.1272C42.7403 35.28 42.6893 35.28 42.485 35.28C42.0765 35.28 41.7701 35.28 41.5659 35.28C41.3616 35.28 41.2084 35.28 41.1063 35.28C41.1063 35.28 41.0042 35.28 40.851 35.28C40.7488 35.28 40.6467 35.28 40.5446 35.28C40.4935 35.28 40.4425 35.28 40.4425 35.229C40.4425 35.229 40.4425 35.1781 40.4935 35.1781C40.5446 35.1781 40.5957 35.1781 40.6467 35.1781C40.7488 35.1781 40.7488 35.0763 40.7999 34.9236C40.851 34.72 40.851 34.3127 40.851 33.8036V32.6327H40.7999Z" fill="#FDC63E"/>
<path d="M45.5492 33.5491C45.5492 34.0582 45.5492 34.4654 45.5492 34.6691C45.5492 34.8218 45.6002 34.9236 45.7534 34.9236C45.8045 34.9236 45.9577 34.9236 46.0088 34.9236C46.0598 34.9236 46.0598 34.9236 46.0598 34.9745C46.0598 34.9745 46.0598 35.0254 45.9577 35.0254C45.6513 35.0254 45.3449 35.0254 45.2939 35.0254C45.2939 35.0254 44.8854 35.0254 44.7322 35.0254C44.6811 35.0254 44.63 35.0254 44.63 34.9745C44.63 34.9745 44.63 34.9236 44.6811 34.9236C44.7322 34.9236 44.7832 34.9236 44.8343 34.9236C44.9364 34.9236 44.9875 34.7709 44.9875 34.6182C44.9875 34.4145 44.9875 34.0072 44.9875 33.4982V31.3091H44.2215C43.8641 31.3091 43.762 31.36 43.6598 31.4618C43.6088 31.5636 43.6088 31.6145 43.5577 31.6145C43.5577 31.6654 43.5066 31.6654 43.5066 31.6654C43.5066 31.6654 43.4556 31.6654 43.4556 31.6145C43.4556 31.5636 43.5577 31.1054 43.5577 31.0545C43.5577 31.0036 43.6088 30.9527 43.6088 30.9527C43.6598 30.9527 43.7109 31.0036 43.8641 31.0036C44.0173 31.0036 44.2215 31.0036 44.2726 31.0036H46.3151C46.4683 31.0036 46.6215 31.0036 46.7237 31.0036C46.8258 31.0036 46.8768 31.0036 46.8768 31.0036V31.0545C46.8768 31.2072 46.8768 31.5636 46.8768 31.6654C46.8768 31.7163 46.8768 31.7163 46.8258 31.7163C46.8258 31.7163 46.7747 31.7163 46.7747 31.6145V31.5636C46.7747 31.4109 46.6215 31.3091 46.1109 31.2582H45.4471V33.5491H45.5492Z" fill="#FDC63E"/>
<path d="M48.766 33.5491C48.766 34.0582 48.766 34.4655 48.766 34.6691C48.766 34.8218 48.8171 34.9237 48.9703 34.9237C49.0724 34.9237 49.1745 34.9237 49.2256 34.9237C49.2767 34.9237 49.2767 34.9236 49.2767 34.9746C49.2767 34.9746 49.2767 35.0255 49.1745 35.0255C48.8682 35.0255 48.5107 35.0255 48.5107 35.0255C48.4596 35.0255 48.1533 35.0255 48.0001 35.0255C47.949 35.0255 47.8979 35.0255 47.8979 34.9746C47.8979 34.9746 47.8979 34.9237 47.949 34.9237C48.0001 34.9237 48.0511 34.9237 48.1022 34.9237C48.2043 34.9237 48.2043 34.8218 48.2554 34.6691C48.2554 34.4655 48.3065 34.0582 48.3065 33.5491V32.6327C48.3065 31.8182 48.3065 31.6655 48.3065 31.5127C48.3065 31.36 48.2554 31.2582 48.1533 31.2073C48.1022 31.2073 48.0001 31.2073 48.0001 31.2073C48.0001 31.2073 47.949 31.2073 47.949 31.1564C47.949 31.1055 47.949 31.1055 48.0511 31.1055C48.2043 31.1055 48.5618 31.1055 48.6128 31.1055C48.6128 31.1055 48.9703 31.1055 49.1745 31.1055C49.2256 31.1055 49.2767 31.1055 49.2767 31.1564C49.2767 31.1564 49.2767 31.2073 49.2256 31.2073C49.1745 31.2073 49.1745 31.2073 49.0724 31.2073C48.9192 31.2582 48.9192 31.3091 48.8682 31.5127C48.8682 31.6655 48.8682 31.8182 48.8682 32.6327V33.5491H48.766Z" fill="#FDC63E"/>
<path d="M50.9618 34.3637C50.9618 34.7709 51.0128 34.9236 51.166 34.9746C51.2681 34.9746 51.3703 35.0255 51.4213 35.0255C51.4213 35.0255 51.4724 35.0255 51.4724 35.0764C51.4724 35.1273 51.4213 35.1273 51.3703 35.1273C51.0639 35.1273 50.8596 35.1273 50.8086 35.1273C50.7575 35.1273 50.5532 35.1273 50.2979 35.1273C50.2469 35.1273 50.1958 35.1273 50.1958 35.0764C50.1958 35.0764 50.1958 35.0255 50.2469 35.0255C50.2979 35.0255 50.4001 35.0255 50.4511 34.9746C50.6043 34.9236 50.6043 34.8218 50.6043 34.3127V31.36C50.6043 31.1564 50.6554 31.1055 50.6554 31.1055C50.7064 31.1055 50.8086 31.2073 50.8596 31.2582C50.9618 31.36 51.7277 32.1746 52.5447 33.04C53.0554 33.6 53.6681 34.2109 53.8213 34.3637L53.7703 31.7673C53.7703 31.4109 53.7192 31.3091 53.566 31.3091C53.4639 31.3091 53.3618 31.3091 53.3107 31.3091C53.2596 31.3091 53.2596 31.2582 53.2596 31.2582C53.2596 31.2073 53.3107 31.2073 53.3618 31.2073C53.6171 31.2073 53.8724 31.2073 53.9235 31.2073C53.9745 31.2073 54.1788 31.2073 54.383 31.2073C54.4341 31.2073 54.4852 31.2073 54.4852 31.2582C54.4852 31.2582 54.4852 31.3091 54.4341 31.3091C54.4341 31.3091 54.383 31.3091 54.2809 31.3091C54.1277 31.36 54.0767 31.4618 54.0767 31.7673V34.8218C54.0767 35.1782 54.0767 35.1782 54.0256 35.1782C53.9745 35.1782 53.9235 35.1273 53.6171 34.8727C53.566 34.8218 52.8001 34.0582 52.2384 33.4473C51.6256 32.7855 51.0128 32.1746 50.8596 31.9709L50.9618 34.3637Z" fill="#FDC63E"/>
<path d="M58.468 33.7527C58.468 33.3455 58.468 33.2946 58.2127 33.2436C58.1616 33.2436 58.0595 33.2436 58.0084 33.2436C58.0084 33.2436 57.9574 33.2436 57.9574 33.1927C57.9574 33.1418 57.9574 33.1418 58.0595 33.1418C58.3148 33.1418 58.6723 33.1418 58.6723 33.1418C58.6723 33.1418 59.0297 33.1418 59.1829 33.1418C59.234 33.1418 59.285 33.1418 59.285 33.1927C59.285 33.1927 59.285 33.2436 59.234 33.2436C59.1829 33.2436 59.1829 33.2436 59.0808 33.2436C58.9276 33.2436 58.8765 33.3455 58.8765 33.5491C58.8765 33.7018 58.8765 33.8546 58.8765 34.1091V34.6182C58.8765 34.8727 58.8765 34.8727 58.8254 34.9236C58.468 35.0764 58.0084 35.1782 57.702 35.1782C57.2935 35.1782 56.5276 35.1273 55.9148 34.6182C55.6084 34.3636 55.251 33.8036 55.251 33.1418C55.251 32.3273 55.6595 31.7164 56.1701 31.4618C56.6297 31.1564 57.1914 31.1564 57.5999 31.1564C57.9574 31.1564 58.3148 31.2073 58.4169 31.2582C58.5191 31.2582 58.7233 31.3091 58.8765 31.3091C58.9276 31.3091 58.9276 31.3091 58.9276 31.36C58.9276 31.4109 58.8765 31.5636 58.8765 32.0727C58.8765 32.1746 58.8765 32.1746 58.8254 32.1746C58.7744 32.1746 58.7744 32.1236 58.7744 32.0727C58.7744 32.0218 58.7233 31.8691 58.6723 31.7164C58.5191 31.5127 58.1106 31.3091 57.4467 31.3091C57.1403 31.3091 56.7318 31.3091 56.3233 31.6655C56.0169 31.92 55.8127 32.3782 55.8127 32.9891C55.8127 33.7018 56.1701 34.2618 56.3744 34.4146C56.7829 34.8218 57.2425 34.9746 57.7531 34.9746C57.9574 34.9746 58.2127 34.9746 58.3148 34.8727C58.3659 34.8218 58.4169 34.8218 58.4169 34.72V33.7527H58.468Z" fill="#FDC63E"/>
<path d="M18.6895 41.8473C18.5874 41.7964 18.5874 41.7964 18.5874 41.5927C18.5874 41.2873 18.5874 41.0327 18.6385 40.9309C18.6385 40.88 18.6385 40.8291 18.6895 40.8291C18.7406 40.8291 18.7406 40.8291 18.7406 40.88C18.7406 40.9309 18.7406 41.0327 18.7406 41.0836C18.8427 41.5418 19.2512 41.6946 19.6597 41.6946C20.2725 41.6946 20.5278 41.2873 20.5278 40.88C20.5278 40.4727 20.3746 40.2182 19.8129 39.76L19.5576 39.5564C18.8938 39.0473 18.7406 38.64 18.7406 38.2327C18.7406 37.5709 19.2512 37.1127 20.0172 37.1127C20.2725 37.1127 20.4257 37.1127 20.5789 37.1636C20.681 37.1636 20.7321 37.2145 20.7831 37.2145C20.8342 37.2145 20.8342 37.2145 20.8342 37.2655C20.8342 37.3164 20.8342 37.52 20.8342 37.9273C20.8342 38.0291 20.8342 38.08 20.7831 38.08C20.7321 38.08 20.7321 38.0291 20.7321 37.9782C20.7321 37.9273 20.681 37.7236 20.63 37.6727C20.5789 37.6218 20.4257 37.3673 19.864 37.3673C19.4555 37.3673 19.098 37.6218 19.098 38.08C19.098 38.4364 19.2512 38.64 19.864 39.0982L20.0172 39.2509C20.7321 39.8109 20.9363 40.2182 20.9363 40.6764C20.9363 40.9309 20.8342 41.3891 20.4257 41.6946C20.1704 41.8982 19.8129 41.9491 19.5066 41.9491C19.2512 42 18.9448 41.9491 18.6895 41.8473Z" fill="#FDC63E"/>
<path d="M23.2344 40.5746C23.2344 40.2691 23.1834 40.1673 23.1323 40.0655C23.0812 39.9637 22.3663 38.8437 22.1621 38.5382C22.0089 38.3346 21.9068 38.2328 21.8046 38.1818C21.7025 38.1309 21.6004 38.1309 21.6004 38.1309C21.5493 38.1309 21.5493 38.1309 21.5493 38.08C21.5493 38.08 21.5493 38.0291 21.6004 38.0291C21.7025 38.0291 22.111 38.0291 22.111 38.0291C22.1621 38.0291 22.3663 38.0291 22.5706 38.0291C22.6217 38.0291 22.6217 38.0291 22.6217 38.08C22.6217 38.08 22.5706 38.1309 22.5195 38.1309C22.4685 38.1309 22.4685 38.1818 22.4685 38.2328C22.4685 38.2837 22.5195 38.3855 22.5195 38.4364L23.4897 40.0655C23.5919 39.8618 24.2557 38.7418 24.3578 38.5382C24.4089 38.4364 24.46 38.3346 24.46 38.2837C24.46 38.2328 24.46 38.1818 24.3578 38.1309C24.3068 38.1309 24.2557 38.08 24.2557 38.08C24.2557 38.08 24.3068 38.0291 24.3578 38.0291C24.511 38.0291 24.6642 38.0291 24.7153 38.0291C24.7663 38.0291 25.1238 38.0291 25.2259 38.0291C25.277 38.0291 25.277 38.0291 25.277 38.08C25.277 38.08 25.277 38.1309 25.2259 38.1309C25.1748 38.1309 25.0727 38.1309 24.9706 38.1818C24.8685 38.2328 24.8174 38.2837 24.7153 38.4364C24.5621 38.64 23.7961 39.8618 23.6429 40.0655C23.5408 40.2691 23.5919 40.4218 23.5919 40.5746V41.0328C23.5919 41.1346 23.5919 41.3382 23.5919 41.5418C23.5919 41.6946 23.6429 41.7964 23.7961 41.7964C23.8472 41.7964 24.0004 41.7964 24.0514 41.7964C24.1025 41.7964 24.1025 41.7964 24.1025 41.8473C24.1025 41.8473 24.0514 41.8982 24.0004 41.8982C23.694 41.8982 23.3366 41.8982 23.3366 41.8982C23.3366 41.8982 22.9791 41.8982 22.8259 41.8982C22.7748 41.8982 22.7238 41.8982 22.7238 41.8473C22.7238 41.8473 22.7238 41.7964 22.7748 41.7964C22.8259 41.7964 22.877 41.7964 22.928 41.7964C23.0302 41.7964 23.0812 41.6946 23.0812 41.5418C23.0812 41.3382 23.0812 41.0837 23.0812 41.0328V40.5746H23.2344Z" fill="#FDC63E"/>
<path d="M25.8897 41.8473C25.8387 41.7963 25.7876 41.7963 25.7876 41.6436C25.7876 41.3891 25.7876 41.1854 25.8387 41.0836C25.8387 41.0327 25.8387 40.9818 25.8897 40.9818C25.9408 40.9818 25.9408 40.9818 25.9408 41.0327C25.9408 41.0836 25.9408 41.1345 25.9408 41.2363C26.0429 41.5927 26.4514 41.7454 26.8089 41.7454C27.3195 41.7454 27.6259 41.44 27.6259 41.0327C27.6259 40.6763 27.4216 40.4727 26.9621 40.1163L26.7067 39.9127C26.145 39.4545 25.9408 39.1491 25.9408 38.7927C25.9408 38.1818 26.4004 37.8254 27.1153 37.8254C27.3195 37.8254 27.5238 37.8763 27.677 37.8763C27.7791 37.8763 27.8302 37.8763 27.8812 37.8763C27.9323 37.8763 27.9323 37.8763 27.9323 37.9273C27.9323 37.9273 27.9323 38.1309 27.9323 38.4873C27.9323 38.5891 27.9323 38.5891 27.8812 38.5891C27.8302 38.5891 27.8302 38.5891 27.8302 38.5382C27.8302 38.4873 27.7791 38.3345 27.728 38.2836C27.677 38.2327 27.5238 38.0291 27.0131 38.0291C26.6046 38.0291 26.2982 38.2327 26.2982 38.5891C26.2982 38.8945 26.4514 39.0982 27.0131 39.4545L27.1663 39.5563C27.8302 40.0145 28.0344 40.3709 28.0344 40.8291C28.0344 41.1345 27.9323 41.44 27.5238 41.6945C27.3195 41.8473 26.9621 41.8982 26.6557 41.8982C26.4004 42 26.094 41.9491 25.8897 41.8473Z" fill="#FDC63E"/>
<path d="M30.8939 40.4218C30.8939 40.9309 30.8939 41.3382 30.8939 41.5418C30.8939 41.6945 30.945 41.7963 31.0982 41.7963C31.1492 41.7963 31.3024 41.7963 31.3535 41.7963C31.4045 41.7963 31.4045 41.7963 31.4045 41.8473C31.4045 41.8473 31.4045 41.8982 31.3024 41.8982C30.996 41.8982 30.6897 41.8982 30.6386 41.8982C30.6386 41.8982 30.2301 41.8982 30.0769 41.8982C30.0258 41.8982 29.9748 41.8982 29.9748 41.8473C29.9748 41.8473 29.9748 41.7963 30.0258 41.7963C30.0769 41.7963 30.128 41.7963 30.179 41.7963C30.2811 41.7963 30.3322 41.6436 30.3322 41.4909C30.3322 41.2873 30.3322 40.88 30.3322 40.3709V38.1818H29.5663C29.2088 38.1818 29.1067 38.2327 29.0045 38.3345C28.9535 38.4363 28.9535 38.4873 28.9024 38.4873C28.9024 38.5382 28.8514 38.5382 28.8514 38.5382C28.8514 38.5382 28.8003 38.5382 28.8003 38.4873C28.8003 38.4363 28.9024 37.9782 28.9024 37.9273C28.9024 37.8763 28.9535 37.8254 28.9535 37.8254C29.0045 37.8254 29.0556 37.8763 29.2088 37.8763C29.362 37.8763 29.5662 37.8763 29.6173 37.8763H31.6599C31.8131 37.8763 31.9662 37.8763 32.0684 37.8763C32.1705 37.8763 32.2216 37.8763 32.2216 37.8763V37.9273C32.2216 38.08 32.2216 38.4363 32.2216 38.5382C32.2216 38.5891 32.2216 38.5891 32.1705 38.5891C32.1705 38.5891 32.1194 38.5891 32.1194 38.4873V38.4363C32.1194 38.2836 31.9662 38.1818 31.4556 38.1309H30.7918V40.4218H30.8939Z" fill="#FDC63E"/>
<path d="M33.6515 39.5055C33.6515 38.6909 33.6515 38.5382 33.6515 38.3855C33.6515 38.2328 33.6004 38.1309 33.4472 38.08C33.3961 38.08 33.294 38.08 33.243 38.08C33.243 38.08 33.1919 38.08 33.1919 38.0291C33.1919 37.9782 33.1919 37.9782 33.294 37.9782C33.5493 37.9782 33.9068 37.9782 33.9068 37.9782C33.9579 37.9782 35.0813 37.9782 35.1834 37.9782C35.2855 37.9782 35.3876 37.9782 35.4387 37.9273H35.4898C35.4898 37.9273 35.4898 37.9273 35.4898 37.9782C35.4898 38.0291 35.4387 38.08 35.4387 38.2328C35.4387 38.2837 35.4387 38.5382 35.3876 38.5891C35.3876 38.5891 35.3876 38.64 35.3366 38.64C35.2855 38.64 35.2855 38.64 35.2855 38.5891C35.2855 38.5382 35.2855 38.4873 35.2344 38.3855C35.1834 38.2837 35.1323 38.2837 34.8259 38.2328C34.7238 38.2328 34.111 38.2328 34.06 38.2328C34.06 38.2328 34.0089 38.2328 34.0089 38.2837V39.7091C34.0089 39.76 34.0089 39.76 34.06 39.76C34.111 39.76 34.8259 39.76 34.9791 39.76C35.1323 39.76 35.1834 39.76 35.2344 39.7091C35.2855 39.6582 35.2855 39.6582 35.3366 39.6582C35.3366 39.6582 35.3876 39.6582 35.3876 39.7091C35.3876 39.76 35.3366 39.8109 35.3366 40.0146C35.3366 40.1164 35.3366 40.32 35.3366 40.3709C35.3366 40.4219 35.3366 40.4728 35.2855 40.4728C35.2855 40.4728 35.2344 40.4728 35.2344 40.4219C35.2344 40.3709 35.2344 40.32 35.2344 40.2691C35.2344 40.2182 35.1834 40.1164 34.9791 40.1164C34.8259 40.1164 34.2642 40.1164 34.1621 40.1164C34.111 40.1164 34.111 40.1164 34.111 40.1673V40.6255C34.111 40.7782 34.111 41.3891 34.111 41.4909C34.111 41.8473 34.2132 41.8982 34.7749 41.8982C34.9281 41.8982 35.1834 41.8982 35.3366 41.8473C35.4898 41.7964 35.5408 41.6946 35.5919 41.4909C35.5919 41.44 35.5919 41.3891 35.643 41.3891C35.694 41.3891 35.694 41.44 35.694 41.4909C35.694 41.5419 35.643 41.8982 35.643 42C35.5919 42.1528 35.5408 42.1528 35.3366 42.1528C34.9281 42.1528 34.6217 42.1528 34.4174 42.1528C34.2132 42.1528 34.06 42.1528 33.9579 42.1528C33.9579 42.1528 33.8557 42.1528 33.7025 42.1528C33.6004 42.1528 33.4983 42.1528 33.3962 42.1528C33.3451 42.1528 33.294 42.1528 33.294 42.1019C33.294 42.1019 33.294 42.0509 33.3451 42.0509C33.3962 42.0509 33.4472 42.0509 33.4983 42.0509C33.6004 42.0509 33.6004 41.9491 33.6515 41.7964C33.7025 41.5928 33.7025 41.1855 33.7025 40.6764V39.5055H33.6515Z" fill="#FDC63E"/>
<path d="M41.2596 41.2363C41.2596 41.44 41.3107 41.6945 41.5149 41.7963C41.6681 41.8473 41.8213 41.8473 41.8724 41.8473C41.8724 41.8473 41.9234 41.8473 41.9234 41.8982C41.9234 41.9491 41.8724 41.9491 41.8213 41.9491C41.7192 41.9491 41.1064 41.9491 40.9022 41.8982C40.749 41.8982 40.749 41.8473 40.749 41.8473C40.749 41.8473 40.749 41.7963 40.8 41.7963C40.8511 41.7963 40.8511 41.6945 40.8 41.5927L40.5447 38.9454L39.2681 41.5927C39.166 41.7963 39.1149 41.8473 39.0639 41.8473C39.0128 41.8473 38.9617 41.7963 38.8596 41.5927C38.7064 41.3382 38.349 40.6763 38.2468 40.3709C38.0936 40.0654 37.6341 39.1491 37.583 38.9454L37.3788 41.2873C37.3788 41.3891 37.3788 41.44 37.3788 41.5418C37.3788 41.6436 37.4298 41.6945 37.5319 41.6945C37.6341 41.6945 37.6851 41.7454 37.7362 41.7454C37.7362 41.7454 37.7873 41.7454 37.7873 41.7963C37.7873 41.8473 37.7362 41.8473 37.6851 41.8473C37.4809 41.8473 37.2256 41.8473 37.1745 41.8473C37.1234 41.8473 36.8681 41.8473 36.7149 41.8473C36.6639 41.8473 36.6128 41.8473 36.6128 41.7963C36.6128 41.7963 36.6128 41.7454 36.6639 41.7454C36.7149 41.7454 36.766 41.7454 36.817 41.7454C36.9702 41.6945 37.0213 41.5418 37.0213 41.3382L37.4298 37.9273C37.4298 37.8763 37.4809 37.8254 37.4809 37.8254C37.5319 37.8254 37.583 37.8254 37.583 37.9273L39.2171 41.1345L40.8 37.9273C40.8 37.8763 40.8511 37.8254 40.9022 37.8254C40.9532 37.8254 40.9532 37.8763 41.0043 37.9782L41.2596 41.2363Z" fill="#FDC63E"/>
</g>
<defs>
<clipPath id="clip0_31_1716">
<rect width="60" height="42" fill="white"/>
</clipPath>
</defs>
</svg>
