<svg width="24" height="24" viewBox="0 0 24 24" fill="none" xmlns="http://www.w3.org/2000/svg">
<path d="M17.9461 11.4096L7.38047 3.15721C7.35286 3.13548 7.31968 3.12197 7.28474 3.11824C7.2498 3.11451 7.21452 3.12072 7.18295 3.13613C7.15137 3.15155 7.12479 3.17557 7.10625 3.20541C7.08771 3.23526 7.07796 3.26973 7.07813 3.30487V5.11659C7.07813 5.23143 7.13203 5.34159 7.2211 5.4119L15.6586 12.0002L7.2211 18.5885C7.12969 18.6588 7.07813 18.7689 7.07813 18.8838V20.6955C7.07813 20.8525 7.2586 20.9392 7.38047 20.8432L17.9461 12.5908C18.0359 12.5208 18.1085 12.4312 18.1585 12.3288C18.2084 12.2265 18.2344 12.1141 18.2344 12.0002C18.2344 11.8863 18.2084 11.7739 18.1585 11.6716C18.1085 11.5692 18.0359 11.4796 17.9461 11.4096Z" fill="white"/>
</svg>
